<svg xmlns="http://www.w3.org/2000/svg" viewBox="0 0 83.52 20.228"><defs><style>.a{fill:#44a5d3;}.b{fill:#91c43c;}.c{fill:#ffc72d;}.d{fill:#343434;}</style></defs><g transform="translate(-1485.48 -3467.918)"><g transform="translate(1485.48 3467.918)"><g transform="translate(42.021)"><path class="a" d="M121.231,1.5a9.331,9.331,0,1,0,9.331,9.331A9.325,9.325,0,0,0,121.231,1.5Zm0,15.359a6.057,6.057,0,1,1,6.086-6.028A6.085,6.085,0,0,1,121.231,16.859Z" transform="translate(-89.064 -0.631)"/><path class="b" d="M82.353,3.014V0H72.5V20.228h9.853V17.214H75.688V3.014Z" transform="translate(-72.5)"/><path class="c" d="M99.584.2,85.5,9.416V10.98l14.084,9.274V16.371l-9.563-6.2,9.563-6.144Z" transform="translate(-77.965 -0.084)"/></g><g transform="translate(0 5.332)"><path class="d" d="M1.449,19H0V9.2H2.144l1.333,7.013L4.811,9.2H6.839V19H5.39V12.851L4.115,19H2.9L1.449,12.851Z" transform="translate(0 -9.2)"/><path class="d" d="M15.855,16.735,15.507,19H14l1.681-9.8h2.029L19.332,19H17.767l-.348-2.26Zm.811-5.274-.522,3.883h1.1Z" transform="translate(-5.886 -9.2)"/><path class="d" d="M29.937,16.677a2.321,2.321,0,0,1-.7,1.681,2.193,2.193,0,0,1-1.623.7H25.3V9.2h2.318a2.1,2.1,0,0,1,1.623.7,2.193,2.193,0,0,1,.7,1.623Zm-3.13.869h.869a.792.792,0,0,0,.811-.811v-5.1a.792.792,0,0,0-.811-.811h-.869Z" transform="translate(-10.636 -9.2)"/><path class="d" d="M35.6,19V9.2h4.231v1.449H37.107v2.666h1.971v1.449H37.107V17.43h2.724v1.449H35.6Z" transform="translate(-14.966 -9.2)"/><path class="d" d="M47.849,19H46.4V9.2h1.449Z" transform="translate(-19.507 -9.2)"/><path class="d" d="M52.823,9.2l1.971,6.607V9.2h1.449V19H54.678l-2.029-6.26V19H51.2V9.2Z" transform="translate(-21.525 -9.2)"/></g></g></g></svg>